<svg xmlns="http://www.w3.org/2000/svg" fill="none" viewBox="0 0 1366 1366" height="1366" width="1366">
<g clip-path="url(#clip0_2_2009)">
<path fill="#DC342C" d="M0 0H1365.33V1365.33H0V0ZM473.44 193.427C465.827 202.907 461.267 214.4 458.053 226.013C444.933 224.413 432.173 228.4 419.413 230.707C409.4 234.68 398.867 237.533 389.48 242.96C386.427 244.707 383.24 246.187 380.04 247.6C371.76 240.973 362.467 235.787 352.987 231.12C340.32 225.4 327.2 220.04 313.32 218.333C308.373 218.6 303.44 219.813 298.907 221.8C292.813 225.507 287.893 231.52 286.533 238.653C283.293 247.68 284.933 257.32 284.8 266.68C286.947 283.107 292.08 299.213 300.627 313.48C295.173 319.733 288.6 324.96 283.747 331.733C272.493 346.747 261.613 362.507 255.333 380.32C252.56 389.667 252.787 403.093 262.933 407.84C270.493 412.293 279.08 408.4 286.48 405.693C284.507 413.973 280.053 421.347 277.613 429.48C274.693 438.933 271.853 448.653 272.453 458.667C272.107 467.573 273.267 477.493 279.933 484.067C285.293 489.147 293.12 489.213 300.04 489.04C305.573 489.147 310.387 486.053 315.467 484.347C317.493 493.827 317.173 503.747 320.44 512.96C323.693 523.24 326.933 533.547 331.627 543.293C336.213 552.627 339.053 562.653 342.12 572.56C344.107 578.453 342.12 584.64 341.693 590.627C339.467 601.707 336.92 612.773 335.413 623.987C334.88 634.187 334.68 644.467 335.88 654.627C338.293 666.627 344.133 677.68 350.973 687.72C359.173 696.773 367.773 705.88 378.4 712.12C388.533 717.24 398.867 722.307 410.08 724.587C419.36 727.627 429.227 727.013 438.787 728.507C444.48 728.147 450.173 728.467 455.853 728.4C464.413 725.693 473.6 725.987 482.027 722.787C493.52 720.333 503.667 714.293 514.173 709.347C516.493 714.08 518.333 719.32 522.453 722.853C526.653 726.453 531.733 728.8 536.493 731.547C538.093 743.813 540.067 756.08 544.147 767.813C546.573 778.72 550.227 789.36 555.387 799.267C557.867 804.213 562.973 807.307 564.88 812.6C568.973 823.627 575.24 833.72 582.28 843.107C591.227 854.693 603.6 862.88 615.733 870.787C608.427 891.267 599.827 911.307 593.507 932.107C592.84 941.053 586.853 948.2 584.707 956.707C583.573 961.307 581.84 965.787 581.267 970.52C581.107 978.4 583.36 987.653 590.987 991.52C606.707 1000.07 625.12 1001.37 642.667 1000.8C649.707 1001.12 656.613 999.173 663.627 999.307C668.613 1002.57 672.893 1007 678.533 1009.24C690.013 1012.91 702.093 1014.12 714.107 1014.32C721.373 1015.85 728.68 1013.64 736.013 1014.05C746 1014.68 755.64 1011.55 764.987 1008.47C767.787 1011.75 770.44 1015.45 774.453 1017.37C779.253 1019.64 784.453 1020.95 789.573 1022.32C795.467 1024.01 801.693 1023.15 807.693 1024.25C816.187 1025.69 824.76 1024.08 833.293 1024.81C843.44 1025.32 853.507 1023.83 863.627 1023.29C870.933 1022.32 878.413 1022.44 885.547 1020.33C895.133 1017.67 905.747 1016.37 913.44 1009.47C919.587 1004.95 921.893 997.387 925.907 991.24C933.267 980.413 938.733 968.467 945.173 957.107C948.667 951 950.627 944.187 953.96 938C956.88 932.613 957.707 926.333 961.147 921.213C964.6 916.027 965.573 909.72 968.52 904.267C970.347 900.787 972.32 897.36 973.6 893.613C976.773 883.613 982.133 874.493 984.747 864.293C988.507 855.36 991.493 846.16 994.107 836.827C996.04 830.813 996.667 824.147 1000.83 819.12C1006.97 827.093 1013.2 835.293 1021.59 841.08C1030.2 847.053 1040.48 849.893 1050.63 852.027C1058.11 853.56 1065.67 851.667 1072.96 849.96C1078.13 848.787 1080.72 843.187 1081.97 838.52C1081.97 831.56 1076.97 825.893 1074.87 819.493C1088.71 823.013 1104.43 823.453 1116.97 815.68C1124.57 811.827 1132.03 805.173 1132.44 796.08C1131.96 788.187 1123.76 784.8 1119.28 779.36C1104.8 763.173 1101.76 740.32 1101.91 719.427C1101.67 701.72 1102.81 683.933 1100.72 666.28C1100.71 655.667 1098.15 645.293 1096.57 634.853C1090.83 614.96 1083.63 595.36 1073.24 577.387C1069.2 570.947 1063.29 566.04 1058.07 560.6C1040.59 543.107 1014.41 533.667 989.947 539.52C985.88 540.547 982.24 543.28 977.96 543.32C973.64 540.08 971.067 535.147 967.4 531.28C961.707 525.373 956.8 518.653 950.04 513.867C938.093 501.933 924.187 492.2 909.907 483.28C903.6 478.053 895.907 475.107 888.92 470.987C882.373 467.227 874.92 464.787 869.067 459.987C868.6 455.4 869.453 450.613 867.867 446.173C864.867 438.107 861.547 429.587 854.493 424.147C848.88 418.773 840.933 417.413 834.48 413.507C830.04 408.773 828.133 402.32 824.213 397.2C820.667 391.907 815.027 388.707 809.8 385.333C811.093 381.787 812.72 378.333 813.427 374.6C813.587 370.387 811.587 366.293 808.827 363.2C803.333 356.933 796.32 352.053 788.707 348.733C784.093 346.587 778.48 346.173 774.947 342.147C781.253 337.68 786.987 331.653 788.853 323.973C788.987 317.893 785.573 312.173 781.48 307.907C774.253 300.56 763.56 299.32 754.773 294.64C743.987 290.52 732.72 287.573 721.387 285.32C723.147 281.507 726.773 279.187 729.293 275.96C732.4 271.267 733.853 264.853 730.707 259.787C725.213 249.88 713.64 246.093 703.533 242.813C692.987 240.827 682.747 237.013 671.947 236.64C663.493 236.133 654.88 237.28 646.587 235.053C649.52 230.467 653 225.707 652.933 220.013C653.52 213.48 649.08 206.92 642.733 205.16C633.853 201.64 624.187 201.947 614.84 201C604.013 201.373 593.213 202.693 582.507 204.293C571.307 206.147 560.88 210.613 550.613 215.267C544.613 210.44 540.107 203.96 533.653 199.653C525.64 194.2 518.12 187.493 508.507 185.04C496.56 180.72 481.747 183.413 473.44 193.427ZM587.867 1074.35C578.56 1075.41 570.627 1080.85 562.667 1085.35C554.093 1090.24 548.04 1098.24 542.307 1106.07C535.093 1094.71 525.027 1084.92 512.693 1079.29C504.827 1075.57 496.16 1074.2 487.853 1071.77C478.56 1070.95 469.133 1071.48 459.853 1072.45C448.52 1072.27 437.68 1076.4 427.28 1080.48C413.48 1085.95 401.573 1095.64 393.04 1107.72C384.227 1123.47 374.827 1140.07 374.4 1158.59C375.653 1165.68 373.12 1172.83 374.787 1179.88C376.893 1189.32 378.187 1199.15 382.96 1207.72C387.587 1215.35 392.12 1223.11 398.413 1229.51C402.773 1235.48 409.28 1239.15 414.987 1243.64C426.373 1250.92 439.467 1255 452.56 1257.96C463.853 1259.43 475.28 1257.97 486.587 1257.19C493.2 1256.64 499.227 1253.79 505.053 1250.84C512.2 1248.56 519.08 1245.49 525.28 1241.21C532.08 1237.55 535.787 1230.51 541.347 1225.45C545.227 1229.97 547.853 1235.67 552.867 1239.12C559.933 1243.88 566.48 1249.91 574.96 1252.01C580.92 1254.92 587.707 1254.49 593.92 1256.53C600.12 1258.47 606.68 1257.76 613 1258.89C620.093 1260.32 627.16 1257.92 634.213 1257.4C641.413 1256.83 647.267 1252.35 653.853 1249.92C662.067 1246.65 669.2 1241.43 676.293 1236.28C678.947 1233.79 680.787 1230.55 683.453 1228.07C694.187 1241.44 710.107 1250.16 726.733 1253.75C731.08 1255.33 735.52 1256.71 740.12 1257.44C745.413 1258.24 750.493 1260.92 755.987 1260.05C762.24 1259.11 768.627 1259.77 774.84 1258.43C783.24 1257.53 790.56 1253.04 798.36 1250.19C807.693 1244.33 817.72 1238.65 824.093 1229.37C825.64 1227.28 829.24 1223.87 831.36 1227.17C838.387 1236.81 848.973 1242.73 859.747 1247.29C864.773 1249.36 869.32 1252.6 874.68 1253.84C883.107 1255.8 891.653 1258.71 900.413 1257.19C911.8 1258.6 923.8 1257.04 934.013 1251.57C943.853 1247.87 952.413 1241.69 960.84 1235.56C975 1224.67 985.267 1208.65 988.88 1191.13C992.267 1181.49 992.24 1171.07 991.107 1161.04C991 1156.11 991.293 1151.05 989.64 1146.31C986.56 1137.31 983.947 1128 978.667 1119.96C974.2 1113.36 969.6 1106.63 963.147 1101.8C953.4 1092.2 940.387 1086.67 927.427 1082.88C916.787 1079.44 905.16 1080.93 894.733 1076.68C887.067 1073.77 878.76 1074.95 870.773 1075.05C859.56 1078 848.52 1082.63 839.68 1090.33C835.547 1093.96 833.173 1098.99 830.827 1103.84C824.973 1098.57 820.307 1092.05 813.8 1087.49C800.04 1078.41 783.68 1074.75 767.627 1072.15C762.92 1071.11 758.32 1073.39 753.627 1072.84C749.027 1072.25 744.627 1074.15 740.053 1074.32C731.933 1074.83 724.52 1078.4 716.88 1080.85C705.413 1086.56 693.96 1093.44 686.547 1104.21C682.96 1097.27 676.6 1092.56 670.307 1088.24C662.4 1082.4 652.853 1079.67 643.84 1076.12C633.267 1072.16 621.813 1072.24 610.693 1071.64C603.04 1072.04 595.44 1073.19 587.867 1074.35Z"></path>
<path fill="#DC342C" d="M775.36 396.853C782.44 392.173 792.053 390.88 799.853 394.547C807.293 397.68 814.48 402.587 818.173 410C820.84 414.787 822.173 420.587 826.493 424.28C832.68 426.84 840.12 427.147 845 432.32C851.827 439.813 857.573 449.52 856.56 460.027C855.507 471.64 853.853 483.24 850.587 494.44C845.867 504.827 843.653 516.173 838.173 526.24C833.373 534.947 830.413 544.56 825.2 553.067C821.747 558.827 817.333 563.96 814.133 569.893C809.787 578.2 803.387 585.147 798.573 593.16C780.92 617.827 758.627 638.573 737.347 660.013C731.16 666.4 723.187 670.6 716.667 676.587C710.933 682.2 703.32 685.24 697.253 690.44C688.24 696.187 679.187 701.907 669.68 706.813C661.693 712.267 652.173 714.4 643.413 718.2C630.253 722.827 616.453 725.2 602.853 728.067C587.8 729.72 572.6 728.44 557.72 725.907C551.24 724.507 545.04 722.04 539 719.36C532.293 716.267 528.28 709.747 524.347 703.827C531.307 697.84 538.533 692.093 546.093 686.867C549.613 689.787 553.4 692.587 557.88 693.827C567.067 696.4 576.787 697.853 586.307 696.453C595.64 694.653 605.12 693.133 614.08 689.787C622.68 686.693 630.44 681.76 638.52 677.56C644.347 674.467 650.507 671.067 653.64 664.947C651.773 663.213 649.453 663.04 647.36 664.413C637.52 669.453 627.653 674.533 617.213 678.227C608.04 681.413 598.96 685.16 589.307 686.653C577.147 688.267 564.6 686.707 553.213 682.133C555.267 676.293 561.133 673.387 565.24 669.173C579.387 655.333 593.573 641.427 606.013 626.013C608.733 622.613 612.867 621 616.667 619.173C623.587 615.88 629.427 610.827 635.587 606.36C653.133 594.373 667.48 578.587 683.56 564.853C689.08 559.68 693.24 553.28 698.627 547.973C705.6 541.013 710.32 532.227 717.107 525.133C723.333 518.28 727.853 510.12 733.307 502.667C741.573 489.6 751.36 477.48 758.253 463.56C765.12 451.947 769.72 439.213 774.68 426.72C778.28 417.093 776.453 406.747 775.36 396.853ZM804.2 468.36C795.427 485.427 789.827 504.2 778.853 520.093C774.96 526.867 772.053 534.28 766.933 540.28C762.613 545.293 759.387 551.16 757.64 557.547C765.347 556.187 769.693 549.133 774.053 543.4C781.147 532.653 788.893 522.24 794.347 510.507C800.64 498.64 806.253 486.307 809.547 473.24C810.613 467.933 810.44 462.44 809.747 457.107C806.827 460.267 806.213 464.68 804.2 468.36Z"></path>
<path fill="#DC342C" d="M737.52 674.907C742.467 670.853 747.147 666.467 752.413 662.8C756.56 668.16 757 675.107 759.067 681.333C763.64 694.773 766.307 708.8 771.267 722.12C777.36 743.067 785.253 763.427 792.387 784.013C796.373 797.293 802.533 809.773 806.96 822.893C807.76 826.413 808.48 830.733 805.987 833.773C804.173 836.36 800.973 837.293 798.32 838.747C790.853 824.773 787.053 808.693 777.027 796.147C774.88 797.707 771.867 799.413 772.747 802.587C775.867 815.907 784.04 827.36 788.36 840.253C789.773 844.147 787.893 848.667 783.92 850.027C781.28 850.307 778.64 850.053 776.013 849.96C773.253 841.707 770.147 833.547 765.987 825.893C762.907 820.36 761.253 814.08 757.667 808.84C755.613 808.2 753.413 808.6 751.32 808.6C750.533 816.16 754.573 822.84 757.227 829.627C759.92 836.373 763.12 842.92 766.093 849.56C767.147 852.147 768.533 855.853 766.027 858.04C762.933 861.947 757.613 861.693 753.147 862C751.453 858.467 750.067 854.813 748.827 851.107C745.76 842.093 740.987 833.787 737.867 824.8C736.867 822.12 735.96 819.373 734.373 817C731.16 814.853 727.707 819.667 728.8 822.693C732.213 837.587 738.56 851.613 744.667 865.56C739.987 869.547 730.427 871.493 727.48 864.533C721.133 851.107 716.747 836.893 711.213 823.16C709.467 823.147 707.72 823.093 706 823.28C703.613 824.04 704.56 826.88 704.72 828.693C708.373 842.92 713.787 856.72 721.04 869.507C717.653 871.28 714 873.627 710.013 872.427C704.853 870.92 702.853 865.36 700.493 861.093C693.68 848.72 690.013 835 684.933 821.893C680.92 808.707 675.52 795.96 672.587 782.453C670 772.853 666.893 763.4 664.867 753.667C662.36 744.187 659.053 734.893 657.867 725.12C669.533 718.587 682.733 714.92 693.56 706.88C708.76 697.013 723.4 686.267 737.52 674.907Z"></path>
<path fill="#DC342C" d="M624.08 736.8C631.64 733.96 639.707 732.853 647.24 729.88C649.92 738.12 651.107 746.733 653.333 755.093C655 762.613 657.667 769.947 658.307 777.68C652.493 779.907 644.493 781.187 639.76 776.147C635.64 771.52 633.907 765.4 631.907 759.667C629.52 751.96 626.573 744.453 624.08 736.8Z"></path>
<path fill="#DC342C" d="M549.653 734.96C562.187 738.08 574.96 741.293 588 740.64C596.947 740.947 605.76 738.627 614.707 739.467C617.24 754.227 623.973 767.773 627.853 782.12C616.96 792.12 602.36 797.147 587.92 799.067C580.933 799.547 571.907 800.4 567.28 793.987C559.787 774.92 550.32 755.827 549.653 734.96Z"></path>
<path fill="#DC342C" d="M608.427 1103.15C609.547 1100.79 610.547 1097.55 613.52 1097.07C617.307 1096.4 621.8 1098.19 623.427 1101.83C623.947 1104.93 623.533 1108.09 623.507 1111.24C635.667 1109.85 647.893 1109.44 660.107 1109.08C665.387 1108.68 670.867 1111.57 673.187 1116.41C674.707 1120.83 672.813 1125.49 670.827 1129.44C668.4 1133.97 664.947 1138.63 659.707 1139.95C657.067 1140.73 654.613 1139 652.2 1138.24C652.693 1133.88 653.693 1129.61 654.693 1125.36C642.787 1124.71 630.747 1125.09 618.96 1126.56C612.427 1131.32 606.853 1137.37 599.8 1141.47C598.12 1140.07 595.827 1139.07 594.92 1136.97C594.6 1133.45 596.36 1130.2 597.787 1127.12C601.787 1119.33 605.227 1111.29 608.427 1103.15Z"></path>
<path fill="#DC342C" d="M865.987 1097.84C870.32 1096.16 875.2 1098.67 877.787 1102.24C880.707 1105.89 879.413 1110.88 879.72 1115.2C898.493 1114.23 917.253 1112.89 936.04 1111.84C940.72 1111.56 946.853 1111.51 949.2 1116.51C952.253 1121.64 946.84 1127.48 941.733 1128.17C932.48 1129.53 923.067 1128.32 913.773 1129.32C913.827 1133.97 914.013 1138.63 914.307 1143.28C921.52 1144.27 928.813 1143.61 936.067 1143.96C940.253 1143.87 944.293 1147.57 943.84 1151.91C943.747 1155.41 940.373 1157.91 937.133 1158.41C929.853 1159.67 922.413 1159.05 915.067 1159.21C914.96 1166.11 915.013 1173.04 916.093 1179.88C924.973 1179.72 933.853 1179.11 942.733 1178.6C947.987 1178.43 953.627 1176.24 958.64 1178.72C961.693 1180.23 965.307 1182.71 964.693 1186.65C964.56 1193.13 956.947 1195.09 951.76 1196.04C939.96 1196.95 928.067 1196.6 916.253 1197.59C915.92 1208.43 917.253 1219.56 914.213 1230.13C912.413 1237.17 901.093 1237.36 898.707 1230.68C894.533 1220.19 896.973 1208.64 895.92 1197.69C883.44 1198.79 870.907 1198.79 858.427 1199.79C853.267 1200.04 848.04 1200.64 842.92 1199.83C837.133 1198.05 835.173 1187.92 841.44 1185.41C848.333 1183.28 855.653 1183.49 862.773 1182.77C863.067 1173.81 861.867 1164.88 862.2 1155.93C862.253 1151.33 865.573 1146.16 870.613 1146.23C879.373 1145.8 888.173 1146.2 896.907 1145.12C897.2 1140.44 897.213 1135.75 897.027 1131.07C888.84 1130.91 880.653 1131.39 872.48 1131.15C866.88 1137.92 862.107 1145.79 854.587 1150.64C850.933 1153.08 846.627 1150.51 843.627 1148.24C841.107 1146.52 842.933 1143.35 843.84 1141.28C849.573 1130.05 856.173 1119.23 860.747 1107.45C862.173 1104.11 863.2 1100.35 865.987 1097.84ZM879.387 1160.79C879.187 1167.71 879.813 1174.61 879.973 1181.53C885.307 1181.6 890.627 1181.24 895.947 1180.73C896.64 1173.91 896.8 1167.03 896.373 1160.19C890.707 1159.92 885.013 1160.03 879.387 1160.79Z"></path>
<path fill="#DC342C" d="M485.24 1101.15C487.787 1097.53 493.053 1099.35 496.227 1101.09C501.253 1104.41 496.173 1111.84 500.68 1115.35C507.907 1121.24 515.547 1126.72 523.933 1130.85C528.533 1133.31 533.467 1135.25 537.547 1138.57C541.173 1141.04 538.427 1145.85 536.867 1148.79C534.427 1153.04 528.96 1152.43 525.04 1150.93C511.16 1145.96 500.893 1134.85 488.747 1126.97C482.8 1135.99 475.773 1144.2 468.107 1151.77C479.56 1147.39 491.987 1147.4 504.067 1146.65C508.307 1146.44 513.693 1146.83 515.933 1151.09C517.333 1153.97 516.547 1158.97 512.907 1159.73C506.6 1161.67 499.933 1161.64 493.413 1162.27C487.147 1162.67 480.893 1163.45 474.6 1163.29C470.12 1163.2 468.227 1158.33 465.88 1155.25C463.093 1156.48 460.213 1157.45 457.44 1158.72C455.587 1156.97 453.333 1155.45 452.307 1153.04C452.347 1151.08 453.427 1149.37 454.36 1147.75C461.733 1136.12 470.227 1125.24 477.547 1113.57C480.187 1109.48 482.28 1105.03 485.24 1101.15Z"></path>
<path fill="#DC342C" d="M584.64 1099.21C589.72 1098.65 595.6 1101.88 597.213 1106.87C597.067 1112.41 594.013 1117.4 591.333 1122.12C589.6 1125.47 586.347 1128.63 587.147 1132.72C588.507 1144.89 587.893 1157.16 588.413 1169.39C588.507 1173.68 588.693 1179.32 584.307 1181.71C578.187 1183.92 570.68 1178.61 570.933 1171.95C570.413 1162.89 571.093 1153.81 570.56 1144.77C565.733 1146.96 560.733 1151.49 555.133 1149.01C551.56 1147.17 551.747 1142.36 554.467 1139.87C562.907 1130 571.213 1119.96 578.267 1109.03C580.347 1105.73 581.92 1102.05 584.64 1099.21Z"></path>
<path fill="#DC342C" d="M736.253 1102.85C739.267 1101.6 742.867 1099.92 746.013 1101.79C751.24 1104.36 753.24 1112.56 748.427 1116.49C743.947 1120.04 738.2 1121.36 733.253 1124.12C733.68 1129.16 734.733 1134.12 736.04 1139.01C740.107 1139.2 744.267 1138.89 748.28 1139.81C751.76 1142.59 751.707 1149.4 747.44 1151.44C743.453 1153.45 738.88 1154.2 735.08 1156.63C733.707 1159.93 734.747 1163.6 734.827 1167.07C739.453 1167.32 744.133 1166.77 748.733 1167.47C754.947 1169.01 754.893 1178.91 749.333 1181.29C744.107 1183.33 738.373 1183.41 732.907 1184.44C732.187 1192.15 730.12 1199.71 726.427 1206.53C722.427 1214.05 718.293 1222.19 710.96 1226.97C705.96 1230.57 698.707 1224.63 700.387 1219.04C701.573 1214.87 704.12 1211.29 706.213 1207.55C710.12 1200.83 712.947 1193.52 714.56 1185.93C709.813 1185.52 704.987 1185.76 700.293 1184.85C695.627 1183.69 692.627 1178.2 694.613 1173.69C701.413 1170.03 709.6 1171.87 716.973 1170.35C717.773 1166.13 718.36 1161.91 718.64 1157.64C713.36 1156.73 705.707 1159.01 702.693 1153.23C701.573 1150.44 699.333 1146.19 702.773 1144.15C707.613 1141.59 713.387 1141.97 718.707 1141.36C718.667 1137.23 718.52 1133.12 718.32 1129.01C713.64 1129.16 709.04 1130.31 704.373 1130.33C700.293 1128.84 698.413 1124.57 696.24 1121.19C698.547 1118.52 701.547 1116.63 704.92 1115.6C715.6 1111.96 725.973 1107.51 736.253 1102.85Z"></path>
<path fill="#DC342C" d="M432.573 1103.08C437.64 1102.8 445.253 1105.87 444.467 1112C442.907 1121.45 436.427 1128.96 431.493 1136.85C430.04 1138.96 429.573 1141.49 429.173 1143.99C437.467 1144.52 439.973 1135.08 445.573 1130.87C449.987 1126.09 457.213 1133.45 454.96 1138.6C450.893 1151.32 441.12 1161.04 434.533 1172.43C440.733 1171.25 446.84 1169.4 453.2 1169.21C454.547 1172.72 455.453 1177.45 452.24 1180.27C447.2 1184.17 441.093 1186.37 435.213 1188.69C428.8 1191.01 421.813 1193.64 414.96 1191.76C409.667 1190.31 407.227 1182.97 410.68 1178.67C414.84 1172.4 420.067 1166.87 423.787 1160.28C418.987 1159.49 413.64 1159.96 409.373 1157.32C407.067 1153.75 405.667 1148.96 407.6 1144.93C411.773 1134.53 418.613 1125.55 423.787 1115.67C426.427 1111.31 428.693 1106.49 432.573 1103.08Z"></path>
<path fill="#DC342C" d="M762.547 1108.99C777.6 1106.84 792.787 1104.68 808.013 1104.99C815.773 1105 818.08 1117.51 810.747 1120.13C804.307 1121.92 797.48 1121.12 790.893 1121.88C790.88 1124.69 790.893 1127.52 790.96 1130.36C796.533 1130.79 802.493 1129.75 807.72 1132.16C811.093 1133.85 812.88 1138.83 809.92 1141.75C805.467 1146.83 797.987 1145.64 792.013 1147.09C792.493 1149.37 793.12 1151.63 793.933 1153.81C799.52 1154.77 806.88 1153.36 810.533 1158.77C812.733 1161.55 813.973 1166.89 809.853 1168.61C804.413 1170.07 798.68 1169.79 793.16 1170.8C792.747 1173.72 792.787 1176.69 793.213 1179.65C801.24 1180.47 809.307 1178.87 817.32 1179.63C822.48 1179.77 826.227 1186.11 823.933 1190.68C821.613 1194.21 817.44 1196.41 813.24 1196.6C806.933 1196.89 800.613 1196.67 794.32 1197.01C794.067 1206.52 795.68 1216.2 793.533 1225.57C792.307 1229.81 789.36 1235.45 784.093 1234.63C779.627 1233.36 776.547 1228.59 776.36 1224.05C775.84 1215.19 776.347 1206.29 775.827 1197.43C768.107 1197.21 760.347 1198.75 752.667 1197.69C747.413 1196.71 743.987 1188.36 749.6 1185.53C758.373 1182 768.16 1183.01 777.36 1181.29C777.12 1178.49 776.747 1175.72 776.253 1172.96C771.533 1172.55 766.613 1172.85 762.12 1171.2C758.4 1169.37 757.48 1164.56 758.12 1160.83C763.053 1156.48 770.307 1157.39 776.373 1156.25C776.453 1153.41 776.48 1150.59 776.493 1147.77C771.64 1147.52 766.707 1147.95 761.92 1146.96C757.72 1146.29 757.587 1141.05 757.893 1137.73C757.6 1135.28 760.053 1134.45 761.933 1133.89C766.8 1132.56 771.867 1132.19 776.827 1131.25C776.84 1129.01 776.84 1126.79 776.84 1124.59C771.093 1123.55 765.187 1124.2 759.453 1123.09C755.093 1122.19 751.667 1117.16 754.28 1113C755.507 1109.56 759.547 1109.57 762.547 1108.99Z"></path>
<path fill="#DC342C" d="M627.227 1128.71C631.227 1128.53 635.307 1128.11 639.267 1129.01C641.827 1132.03 641.547 1136.29 642.12 1139.99C642.853 1150.16 644.347 1160.39 643.507 1170.6C643.293 1177.68 636.267 1183.19 629.453 1182.83C622.813 1181.57 614.973 1176.11 617.053 1168.39C619.693 1168.04 622.36 1167.81 625.013 1167.53C625.827 1158.35 625.747 1149.15 625.507 1139.96C625.333 1136.11 626.173 1132.36 627.227 1128.71Z"></path>
<path fill="#DC342C" d="M608.693 1143.21C612.867 1140.59 617.467 1145.11 617.587 1149.32C618.973 1158.08 611.827 1164.8 605.573 1169.69C600.64 1174.99 592.52 1165.87 596.72 1160.75C600.413 1154.77 603.213 1147.76 608.693 1143.21Z"></path>
<path fill="#DC342C" d="M648 1147.03C650.813 1145.77 653.907 1144.56 657.027 1145.53C664.64 1147.69 672.08 1153.35 673.96 1161.37C674.427 1168.09 664.88 1172.56 659.773 1168.24C653.213 1163.19 648.773 1155.29 648 1147.03Z"></path>
<path fill="#DC342C" d="M492.6 1170.15C499.04 1169.25 505.573 1169.23 512.067 1169.31C520.36 1169.27 526.893 1177.36 527.027 1185.28C527.387 1192.85 525.987 1200.36 525.133 1207.87C524.547 1213.47 522.28 1219.37 517.307 1222.47C512.387 1225.24 506.627 1223.01 501.347 1223.2C494.72 1223.35 488.067 1223.53 481.493 1224.29C477.413 1224.72 472.92 1228.68 469.12 1225.56C463.84 1221.36 462.813 1214.15 462.053 1207.88C461.493 1199.45 460.84 1191.03 460.827 1182.6C460.547 1176.09 466.773 1170.25 473.267 1171.03C479.72 1171.45 486.227 1171.45 492.6 1170.15ZM478.707 1185.35C478.76 1193.37 479.293 1201.47 481.387 1209.27C489.707 1209.25 498.013 1208.51 506.267 1207.49C507.507 1199.73 508.04 1191.87 507.88 1184.03C498.133 1183.68 488.413 1184.71 478.707 1185.35Z"></path>
<path fill="#DC342C" d="M609.813 1184.67C612.813 1183.33 616.16 1181.15 619.48 1182.99C624.587 1185.49 629.827 1189.35 631.467 1195.07C632.96 1201.05 625.573 1208.93 619.907 1204.17C614.187 1199.47 609.107 1192.44 609.813 1184.67Z"></path>
<path fill="#DC342C" d="M652.6 1183.24C657.573 1181.43 663.053 1183.05 667.28 1185.93C672.027 1189.13 677.293 1193 678.52 1198.96C679.813 1204.56 675.16 1210.99 669.413 1211.15C661.853 1208.43 657.373 1201.05 653.453 1194.49C651.693 1191.15 648.613 1186.23 652.6 1183.24Z"></path>
<path fill="#DC342C" d="M569.987 1185.69C574.04 1183.05 578.787 1187.97 578.52 1192.08C578.027 1201.25 575.52 1210.61 570.427 1218.33C566.16 1225.57 553.987 1217.81 556.187 1210.72C558.147 1201.39 562.2 1191.6 569.987 1185.69Z"></path>
<path fill="#DC342C" d="M584.6 1191.12C585.627 1184.67 595.733 1183.47 598.48 1189.25C600.68 1195.67 600.307 1203.11 604.573 1208.73C606.627 1211.65 610.333 1212.25 613.627 1212.68C621.76 1213.56 630.093 1213.68 638.093 1211.75C640.12 1207.56 642.107 1203.36 644.067 1199.16C648.947 1201.75 654.413 1204.57 656.867 1209.83C658.76 1215.51 656.293 1222.73 650.773 1225.45C639.373 1231.73 625.907 1231.37 613.293 1230.88C602.24 1230.49 590.307 1224.85 585.92 1214.17C583.467 1206.8 583.293 1198.72 584.6 1191.12Z"></path>
<path fill="#DC342C" d="M445.853 1193.61C448.427 1192.75 451.587 1191.99 453.973 1193.76C456.907 1196.64 457.573 1202.07 454.28 1204.99C448.067 1211.55 439.147 1214.28 431.04 1217.69C426.707 1219.32 422.347 1221.75 417.573 1221.27C412.173 1220.77 408.4 1214.87 409.32 1209.75C413.213 1204.84 419.6 1203.03 425.293 1201.04C432.333 1199.08 439.08 1196.29 445.853 1193.61Z"></path>
<path fill="#030201" d="M473.44 193.427C481.747 183.413 496.56 180.72 508.507 185.04C518.12 187.493 525.64 194.2 533.653 199.653C540.107 203.96 544.613 210.44 550.613 215.267C560.88 210.613 571.307 206.147 582.507 204.293C593.213 202.693 604.013 201.373 614.84 201C624.187 201.947 633.853 201.64 642.733 205.16C649.08 206.92 653.52 213.48 652.933 220.013C653 225.707 649.52 230.467 646.587 235.053C654.88 237.28 663.493 236.133 671.947 236.64C682.747 237.013 692.987 240.827 703.533 242.813C713.64 246.093 725.213 249.88 730.707 259.787C733.853 264.853 732.4 271.267 729.293 275.96C726.773 279.187 723.147 281.507 721.387 285.32C732.72 287.573 743.987 290.52 754.773 294.64C763.56 299.32 774.253 300.56 781.48 307.907C785.573 312.173 788.987 317.893 788.853 323.973C786.987 331.653 781.253 337.68 774.947 342.147C778.48 346.173 784.093 346.587 788.707 348.733C796.32 352.053 803.333 356.933 808.827 363.2C811.587 366.293 813.587 370.387 813.427 374.6C812.72 378.333 811.093 381.787 809.8 385.333C815.027 388.707 820.667 391.907 824.213 397.2C828.133 402.32 830.04 408.773 834.48 413.507C840.933 417.413 848.88 418.773 854.493 424.147C861.547 429.587 864.867 438.107 867.867 446.173C869.453 450.613 868.6 455.4 869.067 459.987C874.92 464.787 882.373 467.227 888.92 470.987C895.907 475.107 903.6 478.053 909.907 483.28C924.187 492.2 938.093 501.933 950.04 513.867C956.8 518.653 961.707 525.373 967.4 531.28C971.067 535.147 973.64 540.08 977.96 543.32C982.24 543.28 985.88 540.547 989.947 539.52C1014.41 533.667 1040.59 543.107 1058.07 560.6C1063.29 566.04 1069.2 570.947 1073.24 577.387C1083.63 595.36 1090.83 614.96 1096.57 634.853C1098.15 645.293 1100.71 655.667 1100.72 666.28C1102.81 683.933 1101.67 701.72 1101.91 719.427C1101.76 740.32 1104.8 763.173 1119.28 779.36C1123.76 784.8 1131.96 788.187 1132.44 796.08C1132.03 805.173 1124.57 811.827 1116.97 815.68C1104.43 823.453 1088.71 823.013 1074.87 819.493C1076.97 825.893 1081.97 831.56 1081.97 838.52C1080.72 843.187 1078.13 848.787 1072.96 849.96C1065.67 851.667 1058.11 853.56 1050.63 852.027C1040.48 849.893 1030.2 847.053 1021.59 841.08C1013.2 835.293 1006.97 827.093 1000.83 819.12C996.667 824.147 996.04 830.813 994.107 836.827C991.493 846.16 988.507 855.36 984.747 864.293C982.133 874.493 976.773 883.613 973.6 893.613C972.32 897.36 970.347 900.787 968.52 904.267C965.573 909.72 964.6 916.027 961.147 921.213C957.707 926.333 956.88 932.613 953.96 938C950.627 944.187 948.667 951 945.173 957.107C938.733 968.467 933.267 980.413 925.907 991.24C921.893 997.387 919.587 1004.95 913.44 1009.47C905.747 1016.37 895.133 1017.67 885.547 1020.33C878.413 1022.44 870.933 1022.32 863.627 1023.29C853.507 1023.83 843.44 1025.32 833.293 1024.81C824.76 1024.08 816.187 1025.69 807.693 1024.25C801.693 1023.15 795.467 1024.01 789.573 1022.32C784.453 1020.95 779.253 1019.64 774.453 1017.37C770.44 1015.45 767.787 1011.75 764.987 1008.47C755.64 1011.55 746 1014.68 736.013 1014.05C728.68 1013.64 721.373 1015.85 714.107 1014.32C702.093 1014.12 690.013 1012.91 678.533 1009.24C672.893 1007 668.613 1002.57 663.627 999.307C656.613 999.173 649.707 1001.12 642.667 1000.8C625.12 1001.37 606.707 1000.07 590.987 991.52C583.36 987.653 581.107 978.4 581.267 970.52C581.84 965.787 583.573 961.307 584.707 956.707C586.853 948.2 592.84 941.053 593.507 932.107C599.827 911.307 608.427 891.267 615.733 870.787C603.6 862.88 591.227 854.693 582.28 843.107C575.24 833.72 568.973 823.627 564.88 812.6C562.973 807.307 557.867 804.213 555.387 799.267C550.227 789.36 546.573 778.72 544.147 767.813C540.067 756.08 538.093 743.813 536.493 731.547C531.733 728.8 526.653 726.453 522.453 722.853C518.333 719.32 516.493 714.08 514.173 709.347C503.667 714.293 493.52 720.333 482.027 722.787C473.6 725.987 464.413 725.693 455.853 728.4C450.173 728.467 444.48 728.147 438.787 728.507C429.227 727.013 419.36 727.627 410.08 724.587C398.867 722.307 388.533 717.24 378.4 712.12C367.773 705.88 359.173 696.773 350.973 687.72C344.133 677.68 338.293 666.627 335.88 654.627C334.68 644.467 334.88 634.187 335.413 623.987C336.92 612.773 339.467 601.707 341.693 590.627C342.12 584.64 344.107 578.453 342.12 572.56C339.053 562.653 336.213 552.627 331.627 543.293C326.933 533.547 323.693 523.24 320.44 512.96C317.173 503.747 317.493 493.827 315.467 484.347C310.387 486.053 305.573 489.147 300.04 489.04C293.12 489.213 285.293 489.147 279.933 484.067C273.267 477.493 272.107 467.573 272.453 458.667C271.853 448.653 274.693 438.933 277.613 429.48C280.053 421.347 284.507 413.973 286.48 405.693C279.08 408.4 270.493 412.293 262.933 407.84C252.787 403.093 252.56 389.667 255.333 380.32C261.613 362.507 272.493 346.747 283.747 331.733C288.6 324.96 295.173 319.733 300.627 313.48C292.08 299.213 286.947 283.107 284.8 266.68C284.933 257.32 283.293 247.68 286.533 238.653C287.893 231.52 292.813 225.507 298.907 221.8C303.44 219.813 308.373 218.6 313.32 218.333C327.2 220.04 340.32 225.4 352.987 231.12C362.467 235.787 371.76 240.973 380.04 247.6C383.24 246.187 386.427 244.707 389.48 242.96C398.867 237.533 409.4 234.68 419.413 230.707C432.173 228.4 444.933 224.413 458.053 226.013C461.267 214.4 465.827 202.907 473.44 193.427ZM481.293 208.067C477.52 213.08 477.027 219.52 474.493 225.107C472.027 231.04 471.667 237.533 470.32 243.76C467.707 255.173 466.773 266.973 467.68 278.627C466.84 290.747 470.147 302.493 471.88 314.347C473.733 318.533 475.267 322.92 474.36 327.587C471.4 328.88 467.333 330.04 465.08 326.92C455.8 316.733 454.6 302.213 452.867 289.173C453.04 284.28 452.653 279.427 451.92 274.6C452.027 268.827 453.107 263.12 452.92 257.333C453.693 250.6 454.947 243.933 455.747 237.2C441.813 240.467 427.6 242.72 413.973 247.187C408.853 249.867 403.547 252.147 398.053 253.947C391.573 257.227 385.227 260.787 378.76 264.107C374.4 267.96 368.787 269.907 364.387 273.693C361.067 276.373 357.373 278.48 353.6 280.413C350.453 281.933 348.707 285.147 345.827 287C339.173 291.373 334.013 297.533 328.227 302.92C324.333 306.56 320.253 310.04 316.653 313.987C303.72 328.76 289.507 342.867 280.64 360.6C274.307 368.24 271.84 377.973 268.147 386.973C267.147 389.88 267.76 392.987 268.307 395.92C275.733 397.747 281.92 391.893 288.707 389.933C294.333 386.307 299.72 382.253 305.533 378.893C307.347 380.427 308.987 382.147 310.52 383.973C306.6 390.547 303.36 397.52 300.36 404.533C298.933 410.64 295.853 416.133 293.96 422.067C291.307 432.493 287.453 442.64 286.56 453.453C284.707 459.347 286.413 465.347 287.533 471.187C288.907 474.933 293.44 476.027 297.027 475.92C303.92 473.907 310.707 471.253 316.92 467.64C321.333 463.547 326.64 460.507 330.653 455.987C334.88 451.707 338.093 446.56 342.267 442.24C345.48 439.053 345.747 434.293 347.893 430.533C349.067 428.267 351.867 428.667 353.987 428.293C356.987 437.547 353.72 447.453 356.093 456.853C357.627 462.307 357.76 469.733 363.947 472.067C368.56 475.48 373.693 470.84 377.053 467.733C387.08 456.947 394.947 444.027 399.587 430.027C403.48 422.147 405.173 413.493 407.6 405.12C408.747 401.133 409.08 396.44 412.347 393.48C416.587 392.44 418.093 397.467 419.253 400.56C421.88 409.813 425.867 419.36 433.72 425.387C439.107 427.507 442.813 421.333 443.747 416.853C445.2 408.987 447.36 401.2 447.707 393.173C447.96 386.893 449.84 380.867 450.52 374.653C451.773 366.227 452.4 357.333 456.533 349.72C458.973 346.187 464.4 349.8 464.08 353.427C464.333 359.72 464.6 366.16 463.227 372.36C460.867 391.333 461.533 411.787 451.347 428.747C448.24 434.347 442.133 439.613 435.307 437.88C426.467 436.493 420 429.533 415.733 422.133C411.133 439.653 404.4 457.173 392.253 470.92C388.187 475.347 384.333 480.493 378.48 482.653C374.667 484.187 370.733 487.013 366.44 485.52C359.467 483.867 352.04 480.52 348.947 473.587C345.68 468.987 346.013 463.2 344.453 458.027C340.04 465.947 335.413 474.24 326.987 478.507C329.173 492.4 331.493 506.587 337.853 519.28C340.307 527.613 345.48 534.787 347.68 543.187C350.427 552.68 355.56 561.8 355.16 571.933C355.24 575.52 356.533 579.027 356.027 582.64C354.507 594.347 352.507 606 349.707 617.48C348.427 626.987 346.76 636.613 348.453 646.187C349.773 650.133 350.48 654.227 351.107 658.347C354.64 668.84 361.507 677.72 368.427 686.227C377 695.64 388.36 701.693 399.747 707C412.36 711.2 425.453 713.947 438.733 714.56C444.987 715.693 451.08 713.493 457.32 713.627C467.52 713.533 476.973 709.4 486.787 707.173C501.92 701.56 515.467 692.56 528.587 683.293C535.947 677.32 543.96 672 550.027 664.6C557.867 657.84 565.413 650.707 572.453 643.093C577.267 637.307 583.587 632.893 587.933 626.693C590.973 623.027 594.293 619.587 596.88 615.56C601.013 610.72 605.493 606.133 608.493 600.453C616.64 589.16 624.08 577.32 629.8 564.6C631.187 562.04 634.133 561.507 636.773 561.32C640.093 566.507 638.6 572.72 636.347 577.987C632.853 585.267 629.2 592.493 625.187 599.493C629.853 596.84 634.053 593.507 638.053 589.947C648.693 582.573 657.187 572.707 666.533 563.853C668.773 561.6 670.787 559.147 672.693 556.613C675.293 553 679.72 551.133 681.933 547.2C685.133 541.68 691.467 538.893 694.56 533.28C697.387 527.853 702.307 524.027 705.827 519.133C709.2 512.573 715.36 508.027 718.613 501.36C730.053 485.68 741.213 469.653 749.573 452.12C752.133 447.507 755.253 443.093 756.733 438C757.76 435.04 754.933 432.76 753.48 430.533C743.973 419.2 733.373 408.84 723.72 397.64C720.253 393.533 716.173 390.027 712.507 386.107C708.133 381.107 702.227 377.747 697.933 372.68C690.093 365.36 681.76 358.64 673.427 351.907C667.213 345.867 659.36 342.12 652.707 336.653C644.6 332.533 637.547 326.68 629.293 322.827C623.733 319.107 617.187 317.36 611.587 313.733C603.68 309.92 595.293 306.907 588.4 301.293C587.293 305.76 587.813 311.56 583.467 314.413C581.333 316.4 577.8 314.013 577.067 311.8C576.92 291.667 569.267 272.44 559.547 255.093C548.947 235.987 535.173 218.08 516.933 205.773C509.6 202 502.027 197.653 493.573 197.627C487.453 197.933 484.627 203.813 481.293 208.067ZM588.973 217.04C586.213 217.693 583.627 219.4 580.693 218.947C575.413 218.08 570.747 221.147 565.747 222.16C562.88 222.72 560.12 223.68 557.4 224.707C561.56 230.92 567.147 236.187 570.267 243.08C572.027 246.893 574.533 250.32 576.347 254.107C577.6 258.04 579.027 261.92 581.253 265.413C584.147 270.053 583.493 275.853 586.08 280.613C588.2 284.84 588.627 289.587 589.253 294.2C602.587 293.907 613.96 301.76 626.213 305.747C630.813 308.16 635.16 311.107 639.973 313.12C645.427 315.307 649.147 320.4 654.827 322.08C659.107 323.16 661.893 326.747 665.093 329.493C667.293 330.96 670.2 331.187 672.147 333.147C680.293 340.667 690.133 346.133 697.907 354.093C702.453 358.92 708.04 362.6 712.4 367.613C721.52 374.44 728.507 383.493 736.64 391.373C744.92 401.2 754.147 410.213 761.92 420.467C767.253 411.893 762.96 401.44 767.187 392.587C768.08 390.52 769.733 388.84 771.72 387.787C779.533 383.36 788.307 379.627 797.467 380.307C798.213 377.973 800.253 375.56 798.987 373.053C796.453 367.573 790.693 364.92 785.613 362.347C775.467 357.547 765.16 353.133 754.653 349.213C752.6 348.24 749.653 347.027 749.747 344.347C753.68 338.067 762.653 339.427 767.027 333.733C769.6 331 773.2 329.133 774.933 325.693C776.467 323.053 774.173 320.12 772.2 318.467C763.507 311.24 752.093 309.133 742.013 304.6C733.253 302.467 724.653 299.68 715.973 297.28C708.733 296.2 701.653 294.28 694.4 293.32C694.227 290.64 694.053 287.533 696.573 285.813C703.427 280.787 711.44 276.907 716.893 270.213C719.467 267.787 718.147 263.56 715.173 262.147C707.333 257.733 698.64 254.987 689.733 253.827C682.053 251.147 673.853 251.133 665.867 250.133C657.427 248.36 648.72 249.307 640.213 248.28C634.693 249.48 627.773 251.12 623.933 245.64C628.867 238.893 634.36 232.573 639.04 225.64C640.28 223.547 641.88 220 639.253 218.293C635.44 215.293 630.293 216.547 625.907 215.347C620.293 213.52 614.52 215.453 608.813 215.307C602.16 215.213 595.453 215.48 588.973 217.04ZM302.907 236.36C301.067 240 300.187 244.053 299.013 247.947C299.147 253.773 299.693 259.587 299.467 265.413C302.36 277.067 304.507 289.093 309.667 300.027C310.2 300.2 311.267 300.52 311.8 300.68C321.493 292.293 329.573 282.013 340.467 275.08C349.32 267.68 360.027 262.76 368.76 255.293C362.907 253.68 358 250.133 352.68 247.387C338.653 242.493 325.547 234.733 310.667 232.56C307.853 233.253 305.347 234.853 302.907 236.36ZM775.36 396.853C776.453 406.747 778.28 417.093 774.68 426.72C769.72 439.213 765.12 451.947 758.253 463.56C751.36 477.48 741.573 489.6 733.307 502.667C727.853 510.12 723.333 518.28 717.107 525.133C710.32 532.227 705.6 541.013 698.627 547.973C693.24 553.28 689.08 559.68 683.56 564.853C667.48 578.587 653.133 594.373 635.587 606.36C629.427 610.827 623.587 615.88 616.667 619.173C612.867 621 608.733 622.613 606.013 626.013C593.573 641.427 579.387 655.333 565.24 669.173C561.133 673.387 555.267 676.293 553.213 682.133C564.6 686.707 577.147 688.267 589.307 686.653C598.96 685.16 608.04 681.413 617.213 678.227C627.653 674.533 637.52 669.453 647.36 664.413C649.453 663.04 651.773 663.213 653.64 664.947C650.507 671.067 644.347 674.467 638.52 677.56C630.44 681.76 622.68 686.693 614.08 689.787C605.12 693.133 595.64 694.653 586.307 696.453C576.787 697.853 567.067 696.4 557.88 693.827C553.4 692.587 549.613 689.787 546.093 686.867C538.533 692.093 531.307 697.84 524.347 703.827C528.28 709.747 532.293 716.267 539 719.36C545.04 722.04 551.24 724.507 557.72 725.907C572.6 728.44 587.8 729.72 602.853 728.067C616.453 725.2 630.253 722.827 643.413 718.2C652.173 714.4 661.693 712.267 669.68 706.813C679.187 701.907 688.24 696.187 697.253 690.44C703.32 685.24 710.933 682.2 716.667 676.587C723.187 670.6 731.16 666.4 737.347 660.013C758.627 638.573 780.92 617.827 798.573 593.16C803.387 585.147 809.787 578.2 814.133 569.893C817.333 563.96 821.747 558.827 825.2 553.067C830.413 544.56 833.373 534.947 838.173 526.24C843.653 516.173 845.867 504.827 850.587 494.44C853.853 483.24 855.507 471.64 856.56 460.027C857.573 449.52 851.827 439.813 845 432.32C840.12 427.147 832.68 426.84 826.493 424.28C822.173 420.587 820.84 414.787 818.173 410C814.48 402.587 807.293 397.68 799.853 394.547C792.053 390.88 782.44 392.173 775.36 396.853ZM866.467 474.987C867.093 486.107 862.813 496.56 860.707 507.293C857.72 515.04 854.96 522.88 852.013 530.64C848.067 537.827 845.027 545.493 840.547 552.387C838.467 558.44 834 563.187 831.52 569.027C829.84 572.4 826.907 574.987 825.213 578.36C821.907 585.427 815.813 590.587 811.973 597.333C807.347 601.36 804.987 607.093 800.92 611.587C794.253 619.173 788.893 627.853 781.32 634.64C775.987 641.64 769.013 647.027 762.827 653.2C767.773 660.56 768.2 669.707 771.653 677.693C773.48 686.16 776.573 694.253 778.933 702.573C782.067 708.933 782.04 716.267 785.467 722.52C787.013 728.72 789.867 734.507 791.08 740.8C792.507 747.747 796.64 753.773 797.613 760.867C801.493 769.707 803.733 779.147 806.667 788.333C821.333 768.907 833.813 747.52 842.027 724.6C843.707 722.213 847.453 722.027 849.973 723.213C852.293 724.867 852.52 727.933 851.76 730.48C849.707 739.28 845.773 747.493 842.547 755.907C834.56 772.467 825.32 789.013 811.467 801.453C815.427 810.693 819.72 820.427 819.24 830.693C817.2 838.627 811.88 846.773 803.4 848.627C800.147 849.387 798.813 853.04 795.6 853.92C791.227 855.213 790.613 860.853 786.307 862.413C781.627 865.347 775.093 862.853 771.187 867.2C767.293 870.787 762.493 873.573 757.213 874.413C753.707 874.76 749.613 873.293 746.933 876.32C742.907 880.133 737.173 880.667 732.013 881.867C728.227 881.52 724.347 880.107 720.76 882.093C716.187 884.387 711.187 882.64 706.48 881.88C705.773 886.427 706.32 891.16 705.08 895.6C702.68 900.693 700.627 905.933 699.133 911.373C695.44 924.027 689.64 935.973 686.48 948.787C697.293 947.067 708 950.427 718.707 951.573C734.067 953.2 749.173 956.587 764.653 957C767.293 957.813 769.813 959 772.373 960.04C778.853 939.68 785.6 919.347 794.2 899.773C797.4 890.093 799.947 880.173 804.067 870.84C806.04 866.2 807.2 861.093 810.32 857.04C812.533 853.707 818 854.373 819.84 857.733C819.893 864.667 816.813 871.08 815.427 877.773C814.293 883.533 811.693 888.867 810.16 894.533C808.36 899.693 807.44 905.16 804.933 910.053C802.147 915.053 802.467 921.067 799.573 926.04C795.787 937.2 791.72 948.267 787.68 959.347C792.227 958.987 796.813 958.107 801.387 958.84C812.307 960.787 823.493 960.293 834.453 962.08C844.907 962.307 855.16 964.387 865.52 965.52C875.667 965.56 885.8 966.08 895.947 966.373C903.973 968.253 912.52 964.347 920.08 968.773C928.107 958.4 932.373 945.733 938.467 934.213C944.48 921.84 950.427 909.427 954.947 896.427C958.64 888.573 961.987 880.533 964.307 872.16C966.027 865.813 970.107 860.373 971.267 853.853C973.84 847.987 975.773 841.88 977.093 835.6C983.253 822.453 985.133 807.827 990.347 794.333C992.387 786.44 993.72 778.36 995.987 770.533C998.027 767.013 997.267 762.92 997.867 759.093C1001.24 752.76 999.12 745.347 1001.63 738.733C1005.63 709.52 1007.07 679.76 1002.88 650.467C1002.83 643.213 999.427 636.6 999 629.4C996.013 619.893 994.213 609.987 989.84 600.933C987.893 591.467 982.08 583.6 978.587 574.747C972.48 564.173 966.707 553.267 958.48 544.147C955.04 539.6 951.32 535.253 946.6 531.987C941.987 525.933 935.627 521.68 930.173 516.48C922.693 510.053 914.853 504.067 906.36 499.067C900.147 496.147 895.16 491.267 889.08 488.12C881.387 483.96 873.827 479.667 866.467 474.987ZM984.373 552.893C984.213 553.253 983.867 553.973 983.707 554.32C987.667 559.16 990.653 564.68 993.96 569.96C1000.92 585.52 1008.29 601.027 1012.17 617.733C1012.65 621.44 1015.55 624.387 1015.63 628.173C1015.79 632.88 1017.04 637.453 1018.09 642.04C1019.15 646.213 1018.41 650.613 1019.71 654.76C1021.52 660.707 1020.75 667 1021.92 673.053C1022.81 676.987 1021.13 680.947 1021.93 684.893C1023.17 691.253 1021.36 697.667 1022 704.053C1022.57 709.947 1020.2 715.653 1020.72 721.56C1018.68 733.08 1018.83 745.107 1014.59 756.187C1013.81 762.173 1013.79 768.293 1011.52 774C1010.64 782.427 1007.77 790.453 1005.25 798.507C1008.84 803.253 1010.96 808.88 1014.12 813.893C1017.92 818.08 1022.48 821.533 1026.43 825.6C1031.24 830.733 1038.16 832.853 1044.33 835.853C1051.95 837.4 1060.29 840.133 1067.72 836.253C1064.03 829.88 1060.71 823.333 1058.24 816.387C1056.24 810.467 1052.48 805 1052.07 798.653C1051.63 795.053 1056.11 792.307 1059.23 794.093C1062.43 796.173 1064.76 799.333 1067.99 801.427C1073.2 805.093 1079.53 806.347 1085.56 808.08C1092.09 810.147 1098.97 808.173 1105.44 806.76C1109.45 804.333 1112.99 801.147 1117 798.667C1112.96 793.893 1107.05 791.08 1103.53 785.813C1094.81 773.48 1089.51 758.88 1087.31 744C1084.29 726.373 1086.6 708.453 1085.71 690.693C1086.01 671.147 1083.61 651.653 1079.31 632.613C1077 626.773 1076.73 620.347 1073.15 615.027C1072.09 607.76 1067.68 601.773 1064.73 595.213C1058.35 584.28 1050.99 573.547 1040.6 566.053C1028.99 558.293 1015.95 551.52 1001.67 551.28C995.907 551.987 990.16 552.56 984.373 552.893ZM737.52 674.907C723.4 686.267 708.76 697.013 693.56 706.88C682.733 714.92 669.533 718.587 657.867 725.12C659.053 734.893 662.36 744.187 664.867 753.667C666.893 763.4 670 772.853 672.587 782.453C675.52 795.96 680.92 808.707 684.933 821.893C690.013 835 693.68 848.72 700.493 861.093C702.853 865.36 704.853 870.92 710.013 872.427C714 873.627 717.653 871.28 721.04 869.507C713.787 856.72 708.373 842.92 704.72 828.693C704.56 826.88 703.613 824.04 706 823.28C707.72 823.093 709.467 823.147 711.213 823.16C716.747 836.893 721.133 851.107 727.48 864.533C730.427 871.493 739.987 869.547 744.667 865.56C738.56 851.613 732.213 837.587 728.8 822.693C727.707 819.667 731.16 814.853 734.373 817C735.96 819.373 736.867 822.12 737.867 824.8C740.987 833.787 745.76 842.093 748.827 851.107C750.067 854.813 751.453 858.467 753.147 862C757.613 861.693 762.933 861.947 766.027 858.04C768.533 855.853 767.147 852.147 766.093 849.56C763.12 842.92 759.92 836.373 757.227 829.627C754.573 822.84 750.533 816.16 751.32 808.6C753.413 808.6 755.613 808.2 757.667 808.84C761.253 814.08 762.907 820.36 765.987 825.893C770.147 833.547 773.253 841.707 776.013 849.96C778.64 850.053 781.28 850.307 783.92 850.027C787.893 848.667 789.773 844.147 788.36 840.253C784.04 827.36 775.867 815.907 772.747 802.587C771.867 799.413 774.88 797.707 777.027 796.147C787.053 808.693 790.853 824.773 798.32 838.747C800.973 837.293 804.173 836.36 805.987 833.773C808.48 830.733 807.76 826.413 806.96 822.893C802.533 809.773 796.373 797.293 792.387 784.013C785.253 763.427 777.36 743.067 771.267 722.12C766.307 708.8 763.64 694.773 759.067 681.333C757 675.107 756.56 668.16 752.413 662.8C747.147 666.467 742.467 670.853 737.52 674.907ZM624.08 736.8C626.573 744.453 629.52 751.96 631.907 759.667C633.907 765.4 635.64 771.52 639.76 776.147C644.493 781.187 652.493 779.907 658.307 777.68C657.667 769.947 655 762.613 653.333 755.093C651.107 746.733 649.92 738.12 647.24 729.88C639.707 732.853 631.64 733.96 624.08 736.8ZM549.653 734.96C550.32 755.827 559.787 774.92 567.28 793.987C571.907 800.4 580.933 799.547 587.92 799.067C602.36 797.147 616.96 792.12 627.853 782.12C623.973 767.773 617.24 754.227 614.707 739.467C605.76 738.627 596.947 740.947 588 740.64C574.96 741.293 562.187 738.08 549.653 734.96ZM625.44 797.4C618.027 802.453 609.56 805.693 601.16 808.68C592.893 809.44 584.613 811.213 576.293 810.067C578.413 814.187 581.107 818.013 583.08 822.24C586.28 829.24 592.013 834.573 597.027 840.267C600.72 844.64 605.44 847.933 609.88 851.507C619.973 859.507 633.16 864.107 646.08 862.627C644.467 861.267 642.773 860.027 640.92 859.067C634.453 855.64 629.467 850.027 625.093 844.28C622.773 840.787 619.547 837.16 620.293 832.653C622.253 832.693 624.893 831.547 625.907 833.96C631.747 842.293 639.027 849.8 648.053 854.667C650.707 856.067 653.68 856.507 656.653 856.773C653.853 851.32 649.307 847.08 646.187 841.867C641.16 832.813 637.533 822.92 636.453 812.587C634.04 805.08 637.693 796.693 633.36 789.667C630.613 792.133 628.347 795.12 625.44 797.4ZM644.587 791.84C644.68 799.853 644.147 808.133 646.96 815.8C648.56 820.027 649.56 824.467 651.147 828.707C656.933 840.493 665.653 851.44 677.907 856.893C680.96 858.653 684.373 857.067 687.493 856.36C681.4 846.107 677.307 834.8 673.693 823.493C668.88 813 667.84 801.267 663.053 790.76C656.907 792.027 650.8 794.253 644.587 791.84ZM639.827 876.187C635.32 876.92 631.093 874.653 626.747 873.933C623.2 890.84 616.293 906.747 610.987 923.12C609.6 927.653 606.773 931.827 607.027 936.747C620.32 936.227 633.013 941.227 646.253 941.813C653.84 946.2 663.227 943.933 670.72 948.347C674.333 942.28 675.573 935.293 678.067 928.773C682.693 917.973 685.693 906.56 690.653 895.893C693.32 890.347 694.653 884.187 698.08 879.027C695.08 876.44 692.747 873.213 691.12 869.613C686.787 870.147 682.32 871.053 678.013 869.96C674.187 868.733 670.573 866.973 666.96 865.267C660.027 873 649.4 874.187 639.827 876.187Z"></path>
<path fill="#030201" d="M804.2 468.36C806.213 464.68 806.827 460.267 809.747 457.107C810.44 462.44 810.613 467.933 809.547 473.24C806.253 486.307 800.64 498.64 794.347 510.507C788.893 522.24 781.147 532.653 774.053 543.4C769.693 549.133 765.347 556.187 757.64 557.547C759.387 551.16 762.613 545.293 766.933 540.28C772.053 534.28 774.96 526.867 778.853 520.093C789.827 504.2 795.427 485.427 804.2 468.36Z"></path>
<path fill="#030201" d="M477.867 512.64C482.987 511.173 488.773 510.68 493.693 513.12C502.68 517.093 508.907 525.6 511.84 534.787C514.307 545.187 510.493 556.76 502 563.347C492.947 568.693 480.84 565.467 473.88 558.133C467.613 550.427 462.733 540.8 463.707 530.6C463.453 522.187 470.347 515.24 477.867 512.64Z"></path>
<path fill="#030201" d="M447.12 653.52C453.267 652.547 457.28 659.04 458.827 664.107C460.36 669.36 457.68 678.08 450.947 677.2C442.307 673.613 438.04 658.8 447.12 653.52Z"></path>
<path fill="#030201" d="M379.093 663.04C381.32 659.72 385.347 662.573 387.147 664.84C390.693 669.627 394.453 674.44 396.693 680.013C396.133 681.933 395 683.627 394.093 685.4C387.72 683.88 383.88 678.053 380.347 673.027C378.467 670.12 375.813 666.013 379.093 663.04Z"></path>
<path fill="#FBD889" d="M481.293 208.067C484.627 203.813 487.453 197.933 493.573 197.627C502.027 197.653 509.6 202 516.933 205.773C535.173 218.08 548.947 235.987 559.547 255.093C569.267 272.44 576.92 291.667 577.067 311.8C577.8 314.013 581.333 316.4 583.467 314.413C587.813 311.56 587.293 305.76 588.4 301.293C595.293 306.907 603.68 309.92 611.587 313.733C617.187 317.36 623.733 319.107 629.293 322.827C637.547 326.68 644.6 332.533 652.707 336.653C659.36 342.12 667.213 345.867 673.427 351.907C681.76 358.64 690.093 365.36 697.933 372.68C702.227 377.747 708.133 381.107 712.507 386.107C716.173 390.027 720.253 393.533 723.72 397.64C733.373 408.84 743.973 419.2 753.48 430.533C754.933 432.76 757.76 435.04 756.733 438C755.253 443.093 752.133 447.507 749.573 452.12C741.213 469.653 730.053 485.68 718.613 501.36C715.36 508.027 709.2 512.573 705.827 519.133C702.307 524.027 697.387 527.853 694.56 533.28C691.467 538.893 685.133 541.68 681.933 547.2C679.72 551.133 675.293 553 672.693 556.613C670.787 559.147 668.773 561.6 666.533 563.853C657.187 572.707 648.693 582.573 638.053 589.947C634.053 593.507 629.853 596.84 625.187 599.493C629.2 592.493 632.853 585.267 636.347 577.987C638.6 572.72 640.093 566.507 636.773 561.32C634.133 561.507 631.187 562.04 629.8 564.6C624.08 577.32 616.64 589.16 608.493 600.453C605.493 606.133 601.013 610.72 596.88 615.56C594.293 619.587 590.973 623.027 587.933 626.693C583.587 632.893 577.267 637.307 572.453 643.093C565.413 650.707 557.867 657.84 550.027 664.6C543.96 672 535.947 677.32 528.587 683.293C515.467 692.56 501.92 701.56 486.787 707.173C476.973 709.4 467.52 713.533 457.32 713.627C451.08 713.493 444.987 715.693 438.733 714.56C425.453 713.947 412.36 711.2 399.747 707C388.36 701.693 377 695.64 368.427 686.227C361.507 677.72 354.64 668.84 351.107 658.347C350.48 654.227 349.773 650.133 348.453 646.187C346.76 636.613 348.427 626.987 349.707 617.48C352.507 606 354.507 594.347 356.027 582.64C356.533 579.027 355.24 575.52 355.16 571.933C355.56 561.8 350.427 552.68 347.68 543.187C345.48 534.787 340.307 527.613 337.853 519.28C331.493 506.587 329.173 492.4 326.987 478.507C335.413 474.24 340.04 465.947 344.453 458.027C346.013 463.2 345.68 468.987 348.947 473.587C352.04 480.52 359.467 483.867 366.44 485.52C370.733 487.013 374.667 484.187 378.48 482.653C384.333 480.493 388.187 475.347 392.253 470.92C404.4 457.173 411.133 439.653 415.733 422.133C420 429.533 426.467 436.493 435.307 437.88C442.133 439.613 448.24 434.347 451.347 428.747C461.533 411.787 460.867 391.333 463.227 372.36C464.6 366.16 464.333 359.72 464.08 353.427C464.4 349.8 458.973 346.187 456.533 349.72C452.4 357.333 451.773 366.227 450.52 374.653C449.84 380.867 447.96 386.893 447.707 393.173C447.36 401.2 445.2 408.987 443.747 416.853C442.813 421.333 439.107 427.507 433.72 425.387C425.867 419.36 421.88 409.813 419.253 400.56C418.093 397.467 416.587 392.44 412.347 393.48C409.08 396.44 408.747 401.133 407.6 405.12C405.173 413.493 403.48 422.147 399.587 430.027C394.947 444.027 387.08 456.947 377.053 467.733C373.693 470.84 368.56 475.48 363.947 472.067C357.76 469.733 357.627 462.307 356.093 456.853C353.72 447.453 356.987 437.547 353.987 428.293C351.867 428.667 349.067 428.267 347.893 430.533C345.747 434.293 345.48 439.053 342.267 442.24C338.093 446.56 334.88 451.707 330.653 455.987C326.64 460.507 321.333 463.547 316.92 467.64C310.707 471.253 303.92 473.907 297.027 475.92C293.44 476.027 288.907 474.933 287.533 471.187C286.413 465.347 284.707 459.347 286.56 453.453C287.453 442.64 291.307 432.493 293.96 422.067C295.853 416.133 298.933 410.64 300.36 404.533C303.36 397.52 306.6 390.547 310.52 383.973C308.987 382.147 307.347 380.427 305.533 378.893C299.72 382.253 294.333 386.307 288.707 389.933C281.92 391.893 275.733 397.747 268.307 395.92C267.76 392.987 267.147 389.88 268.147 386.973C271.84 377.973 274.307 368.24 280.64 360.6C289.507 342.867 303.72 328.76 316.653 313.987C320.253 310.04 324.333 306.56 328.227 302.92C334.013 297.533 339.173 291.373 345.827 287C348.707 285.147 350.453 281.933 353.6 280.413C357.373 278.48 361.067 276.373 364.387 273.693C368.787 269.907 374.4 267.96 378.76 264.107C385.227 260.787 391.573 257.227 398.053 253.947C403.547 252.147 408.853 249.867 413.973 247.187C427.6 242.72 441.813 240.467 455.747 237.2C454.947 243.933 453.693 250.6 452.92 257.333C453.107 263.12 452.027 268.827 451.92 274.6C452.653 279.427 453.04 284.28 452.867 289.173C454.6 302.213 455.8 316.733 465.08 326.92C467.333 330.04 471.4 328.88 474.36 327.587C475.267 322.92 473.733 318.533 471.88 314.347C470.147 302.493 466.84 290.747 467.68 278.627C466.773 266.973 467.707 255.173 470.32 243.76C471.667 237.533 472.027 231.04 474.493 225.107C477.027 219.52 477.52 213.08 481.293 208.067ZM477.867 512.64C470.347 515.24 463.453 522.187 463.707 530.6C462.733 540.8 467.613 550.427 473.88 558.133C480.84 565.467 492.947 568.693 502 563.347C510.493 556.76 514.307 545.187 511.84 534.787C508.907 525.6 502.68 517.093 493.693 513.12C488.773 510.68 482.987 511.173 477.867 512.64ZM447.12 653.52C438.04 658.8 442.307 673.613 450.947 677.2C457.68 678.08 460.36 669.36 458.827 664.107C457.28 659.04 453.267 652.547 447.12 653.52ZM379.093 663.04C375.813 666.013 378.467 670.12 380.347 673.027C383.88 678.053 387.72 683.88 394.093 685.4C395 683.627 396.133 681.933 396.693 680.013C394.453 674.44 390.693 669.627 387.147 664.84C385.347 662.573 381.32 659.72 379.093 663.04Z"></path>
<path fill="#FBD889" d="M588.973 217.04C595.453 215.48 602.16 215.213 608.813 215.307C614.52 215.453 620.293 213.52 625.907 215.347C630.293 216.547 635.44 215.293 639.253 218.293C641.88 220 640.28 223.547 639.04 225.64C634.36 232.573 628.867 238.893 623.933 245.64C627.773 251.12 634.693 249.48 640.213 248.28C648.72 249.307 657.427 248.36 665.867 250.133C673.853 251.133 682.053 251.147 689.733 253.827C698.64 254.987 707.333 257.733 715.173 262.147C718.147 263.56 719.467 267.787 716.893 270.213C711.44 276.907 703.427 280.787 696.573 285.813C694.053 287.533 694.227 290.64 694.4 293.32C701.653 294.28 708.733 296.2 715.973 297.28C724.653 299.68 733.253 302.467 742.013 304.6C752.093 309.133 763.507 311.24 772.2 318.467C774.173 320.12 776.467 323.053 774.933 325.693C773.2 329.133 769.6 331 767.027 333.733C762.653 339.427 753.68 338.067 749.747 344.347C749.653 347.027 752.6 348.24 754.653 349.213C765.16 353.133 775.467 357.547 785.613 362.347C790.693 364.92 796.453 367.573 798.987 373.053C800.253 375.56 798.213 377.973 797.467 380.307C788.307 379.627 779.533 383.36 771.72 387.787C769.733 388.84 768.08 390.52 767.187 392.587C762.96 401.44 767.253 411.893 761.92 420.467C754.147 410.213 744.92 401.2 736.64 391.373C728.507 383.493 721.52 374.44 712.4 367.613C708.04 362.6 702.453 358.92 697.907 354.093C690.133 346.133 680.293 340.667 672.147 333.147C670.2 331.187 667.293 330.96 665.093 329.493C661.893 326.747 659.107 323.16 654.827 322.08C649.147 320.4 645.427 315.307 639.973 313.12C635.16 311.107 630.813 308.16 626.213 305.747C613.96 301.76 602.587 293.907 589.253 294.2C588.627 289.587 588.2 284.84 586.08 280.613C583.493 275.853 584.147 270.053 581.253 265.413C579.027 261.92 577.6 258.04 576.347 254.107C574.533 250.32 572.027 246.893 570.267 243.08C567.147 236.187 561.56 230.92 557.4 224.707C560.12 223.68 562.88 222.72 565.747 222.16C570.747 221.147 575.413 218.08 580.693 218.947C583.627 219.4 586.213 217.693 588.973 217.04Z"></path>
<path fill="#FBD889" d="M302.907 236.36C305.347 234.853 307.853 233.253 310.667 232.56C325.547 234.733 338.653 242.493 352.68 247.387C358 250.133 362.907 253.68 368.76 255.293C360.027 262.76 349.32 267.68 340.467 275.08C329.573 282.013 321.493 292.293 311.8 300.68C311.267 300.52 310.2 300.2 309.667 300.027C304.507 289.093 302.36 277.067 299.467 265.413C299.693 259.587 299.147 253.773 299.013 247.947C300.187 244.053 301.067 240 302.907 236.36Z"></path>
<path fill="#FBD889" d="M866.467 474.987C873.827 479.667 881.387 483.96 889.08 488.12C895.16 491.267 900.147 496.147 906.36 499.067C914.853 504.067 922.693 510.053 930.173 516.48C935.627 521.68 941.987 525.933 946.6 531.987C951.32 535.253 955.04 539.6 958.48 544.147C966.707 553.267 972.48 564.173 978.587 574.747C982.08 583.6 987.893 591.467 989.84 600.934C994.213 609.987 996.013 619.893 999 629.4C999.427 636.6 1002.83 643.214 1002.88 650.467C1007.07 679.76 1005.63 709.52 1001.63 738.733C999.12 745.347 1001.24 752.76 997.867 759.094C997.267 762.92 998.027 767.014 995.987 770.534C993.72 778.36 992.387 786.44 990.347 794.334C985.133 807.827 983.253 822.454 977.093 835.6C975.773 841.88 973.84 847.987 971.267 853.854C970.107 860.374 966.027 865.814 964.307 872.16C961.987 880.534 958.64 888.574 954.947 896.427C950.427 909.427 944.48 921.84 938.467 934.213C932.373 945.733 928.107 958.4 920.08 968.774C912.52 964.347 903.973 968.254 895.947 966.374C885.8 966.08 875.667 965.56 865.52 965.52C855.16 964.387 844.907 962.307 834.453 962.08C823.493 960.294 812.307 960.787 801.387 958.84C796.813 958.107 792.227 958.987 787.68 959.347C791.72 948.267 795.787 937.2 799.573 926.04C802.467 921.067 802.147 915.053 804.933 910.053C807.44 905.16 808.36 899.694 810.16 894.534C811.693 888.867 814.293 883.534 815.427 877.774C816.813 871.08 819.893 864.667 819.84 857.733C818 854.373 812.533 853.707 810.32 857.04C807.2 861.094 806.04 866.2 804.067 870.84C799.947 880.174 797.4 890.094 794.2 899.774C785.6 919.347 778.853 939.68 772.373 960.04C769.813 959 767.293 957.814 764.653 957C749.173 956.587 734.067 953.2 718.707 951.574C708 950.427 697.293 947.067 686.48 948.787C689.64 935.974 695.44 924.027 699.133 911.374C700.627 905.934 702.68 900.694 705.08 895.6C706.32 891.16 705.773 886.427 706.48 881.88C711.187 882.64 716.187 884.387 720.76 882.094C724.347 880.107 728.227 881.52 732.013 881.867C737.173 880.667 742.907 880.133 746.933 876.32C749.613 873.293 753.707 874.76 757.213 874.414C762.493 873.574 767.293 870.787 771.187 867.2C775.093 862.854 781.627 865.347 786.307 862.414C790.613 860.854 791.227 855.214 795.6 853.92C798.813 853.04 800.147 849.387 803.4 848.627C811.88 846.773 817.2 838.627 819.24 830.694C819.72 820.427 815.427 810.694 811.467 801.454C825.32 789.014 834.56 772.467 842.547 755.907C845.773 747.493 849.707 739.28 851.76 730.48C852.52 727.933 852.293 724.867 849.973 723.213C847.453 722.027 843.707 722.214 842.027 724.6C833.813 747.52 821.333 768.907 806.667 788.334C803.733 779.147 801.493 769.707 797.613 760.867C796.64 753.774 792.507 747.747 791.08 740.8C789.867 734.507 787.013 728.72 785.467 722.52C782.04 716.267 782.067 708.933 778.933 702.573C776.573 694.253 773.48 686.16 771.653 677.693C768.2 669.707 767.773 660.56 762.827 653.2C769.013 647.027 775.987 641.64 781.32 634.64C788.893 627.854 794.253 619.174 800.92 611.587C804.987 607.094 807.347 601.36 811.973 597.333C815.813 590.587 821.907 585.427 825.213 578.36C826.907 574.987 829.84 572.4 831.52 569.027C834 563.187 838.467 558.44 840.547 552.387C845.027 545.494 848.067 537.827 852.013 530.64C854.96 522.88 857.72 515.04 860.707 507.293C862.813 496.56 867.093 486.107 866.467 474.987Z"></path>
<path fill="#FBD889" d="M984.373 552.893C990.16 552.56 995.907 551.987 1001.67 551.28C1015.95 551.52 1028.99 558.293 1040.6 566.053C1050.99 573.547 1058.35 584.28 1064.73 595.213C1067.68 601.773 1072.09 607.76 1073.15 615.027C1076.73 620.347 1077 626.773 1079.31 632.613C1083.61 651.653 1086.01 671.147 1085.71 690.693C1086.6 708.453 1084.29 726.373 1087.31 744C1089.51 758.88 1094.81 773.48 1103.53 785.813C1107.05 791.08 1112.96 793.893 1117 798.667C1112.99 801.147 1109.45 804.333 1105.44 806.76C1098.97 808.173 1092.09 810.147 1085.56 808.08C1079.53 806.347 1073.2 805.093 1067.99 801.427C1064.76 799.333 1062.43 796.173 1059.23 794.093C1056.11 792.307 1051.63 795.053 1052.07 798.653C1052.48 805 1056.24 810.467 1058.24 816.387C1060.71 823.333 1064.03 829.88 1067.72 836.253C1060.29 840.133 1051.95 837.4 1044.33 835.853C1038.16 832.853 1031.24 830.733 1026.43 825.6C1022.48 821.533 1017.92 818.08 1014.12 813.893C1010.96 808.88 1008.84 803.253 1005.25 798.507C1007.77 790.453 1010.64 782.427 1011.52 774C1013.79 768.293 1013.81 762.173 1014.59 756.187C1018.83 745.107 1018.68 733.08 1020.72 721.56C1020.2 715.653 1022.57 709.947 1022 704.053C1021.36 697.667 1023.17 691.253 1021.93 684.893C1021.13 680.947 1022.81 676.987 1021.92 673.053C1020.75 667 1021.52 660.707 1019.71 654.76C1018.41 650.613 1019.15 646.213 1018.09 642.04C1017.04 637.453 1015.79 632.88 1015.63 628.173C1015.55 624.387 1012.65 621.44 1012.17 617.733C1008.29 601.027 1000.92 585.52 993.96 569.96C990.653 564.68 987.667 559.16 983.707 554.32C983.867 553.973 984.213 553.253 984.373 552.893Z"></path>
<path fill="#FBD889" d="M625.44 797.4C628.347 795.12 630.613 792.133 633.36 789.667C637.693 796.693 634.04 805.08 636.453 812.587C637.533 822.92 641.16 832.813 646.187 841.867C649.307 847.08 653.853 851.32 656.653 856.773C653.68 856.507 650.707 856.067 648.053 854.667C639.027 849.8 631.747 842.293 625.907 833.96C624.893 831.547 622.253 832.693 620.293 832.653C619.547 837.16 622.773 840.787 625.093 844.28C629.467 850.027 634.453 855.64 640.92 859.067C642.773 860.027 644.467 861.267 646.08 862.627C633.16 864.107 619.973 859.507 609.88 851.507C605.44 847.933 600.72 844.64 597.027 840.267C592.013 834.573 586.28 829.24 583.08 822.24C581.107 818.013 578.413 814.187 576.293 810.067C584.613 811.213 592.893 809.44 601.16 808.68C609.56 805.693 618.027 802.453 625.44 797.4Z"></path>
<path fill="#FBD889" d="M644.587 791.84C650.8 794.253 656.907 792.027 663.053 790.76C667.84 801.267 668.88 813 673.693 823.493C677.307 834.8 681.4 846.107 687.493 856.36C684.373 857.067 680.96 858.653 677.907 856.893C665.653 851.44 656.933 840.493 651.147 828.707C649.56 824.467 648.56 820.027 646.96 815.8C644.147 808.133 644.68 799.853 644.587 791.84Z"></path>
<path fill="#FBD889" d="M639.827 876.187C649.4 874.187 660.027 873 666.96 865.267C670.573 866.973 674.187 868.733 678.013 869.96C682.32 871.053 686.787 870.147 691.12 869.613C692.747 873.213 695.08 876.44 698.08 879.027C694.653 884.187 693.32 890.347 690.653 895.893C685.693 906.56 682.693 917.973 678.067 928.773C675.573 935.293 674.333 942.28 670.72 948.347C663.227 943.933 653.84 946.2 646.253 941.813C633.013 941.227 620.32 936.227 607.027 936.747C606.773 931.827 609.6 927.653 610.987 923.12C616.293 906.747 623.2 890.84 626.747 873.933C631.093 874.653 635.32 876.92 639.827 876.187Z"></path>
<path fill="#FBD889" d="M587.867 1074.35C595.44 1073.19 603.04 1072.04 610.693 1071.64C621.813 1072.24 633.267 1072.16 643.84 1076.12C652.853 1079.67 662.4 1082.4 670.307 1088.24C676.6 1092.56 682.96 1097.27 686.547 1104.21C693.96 1093.44 705.413 1086.56 716.88 1080.85C724.52 1078.4 731.933 1074.83 740.053 1074.32C744.627 1074.15 749.027 1072.25 753.627 1072.84C758.32 1073.39 762.92 1071.11 767.627 1072.15C783.68 1074.75 800.04 1078.41 813.8 1087.49C820.307 1092.05 824.973 1098.57 830.827 1103.84C833.173 1098.99 835.547 1093.96 839.68 1090.33C848.52 1082.63 859.56 1078 870.773 1075.05C878.76 1074.95 887.067 1073.77 894.733 1076.68C905.16 1080.93 916.787 1079.44 927.427 1082.88C940.387 1086.67 953.4 1092.2 963.147 1101.8C969.6 1106.63 974.2 1113.36 978.667 1119.96C983.947 1128 986.56 1137.31 989.64 1146.31C991.293 1151.05 991 1156.11 991.107 1161.04C992.24 1171.07 992.267 1181.49 988.88 1191.13C985.267 1208.65 975 1224.67 960.84 1235.56C952.413 1241.69 943.853 1247.87 934.013 1251.57C923.8 1257.04 911.8 1258.6 900.413 1257.19C891.653 1258.71 883.107 1255.8 874.68 1253.84C869.32 1252.6 864.773 1249.36 859.747 1247.29C848.973 1242.73 838.387 1236.81 831.36 1227.17C829.24 1223.87 825.64 1227.28 824.093 1229.37C817.72 1238.65 807.693 1244.33 798.36 1250.19C790.56 1253.04 783.24 1257.53 774.84 1258.43C768.627 1259.77 762.24 1259.11 755.987 1260.05C750.493 1260.92 745.413 1258.24 740.12 1257.44C735.52 1256.71 731.08 1255.33 726.733 1253.75C710.107 1250.16 694.187 1241.44 683.453 1228.07C680.787 1230.55 678.947 1233.79 676.293 1236.28C669.2 1241.43 662.067 1246.65 653.853 1249.92C647.267 1252.35 641.413 1256.83 634.213 1257.4C627.16 1257.92 620.093 1260.32 613 1258.89C606.68 1257.76 600.12 1258.47 593.92 1256.53C587.707 1254.49 580.92 1254.92 574.96 1252.01C566.48 1249.91 559.933 1243.88 552.867 1239.12C547.853 1235.67 545.227 1229.97 541.347 1225.45C535.787 1230.51 532.08 1237.55 525.28 1241.21C519.08 1245.49 512.2 1248.56 505.053 1250.84C499.227 1253.79 493.2 1256.64 486.587 1257.19C475.28 1257.97 463.853 1259.43 452.56 1257.96C439.467 1255 426.373 1250.92 414.987 1243.64C409.28 1239.15 402.773 1235.48 398.413 1229.51C392.12 1223.11 387.587 1215.35 382.96 1207.72C378.187 1199.15 376.893 1189.32 374.787 1179.88C373.12 1172.83 375.653 1165.68 374.4 1158.59C374.827 1140.07 384.227 1123.47 393.04 1107.72C401.573 1095.64 413.48 1085.95 427.28 1080.48C437.68 1076.4 448.52 1072.27 459.853 1072.45C469.133 1071.48 478.56 1070.95 487.853 1071.77C496.16 1074.2 504.827 1075.57 512.693 1079.29C525.027 1084.92 535.093 1094.71 542.307 1106.07C548.04 1098.24 554.093 1090.24 562.667 1085.35C570.627 1080.85 578.56 1075.41 587.867 1074.35ZM608.427 1103.15C605.227 1111.29 601.787 1119.33 597.787 1127.12C596.36 1130.2 594.6 1133.45 594.92 1136.97C595.827 1139.07 598.12 1140.07 599.8 1141.47C606.853 1137.37 612.427 1131.32 618.96 1126.56C630.747 1125.09 642.787 1124.71 654.693 1125.36C653.693 1129.61 652.693 1133.88 652.2 1138.24C654.613 1139 657.067 1140.73 659.707 1139.95C664.947 1138.63 668.4 1133.97 670.827 1129.44C672.813 1125.49 674.707 1120.83 673.187 1116.41C670.867 1111.57 665.387 1108.68 660.107 1109.08C647.893 1109.44 635.667 1109.85 623.507 1111.24C623.533 1108.09 623.947 1104.93 623.427 1101.83C621.8 1098.19 617.307 1096.4 613.52 1097.07C610.547 1097.55 609.547 1100.79 608.427 1103.15ZM865.987 1097.84C863.2 1100.35 862.173 1104.11 860.747 1107.45C856.173 1119.23 849.573 1130.05 843.84 1141.28C842.933 1143.35 841.107 1146.52 843.627 1148.24C846.627 1150.51 850.933 1153.08 854.587 1150.64C862.107 1145.79 866.88 1137.92 872.48 1131.15C880.653 1131.39 888.84 1130.91 897.027 1131.07C897.213 1135.75 897.2 1140.44 896.907 1145.12C888.173 1146.2 879.373 1145.8 870.613 1146.23C865.573 1146.16 862.253 1151.33 862.2 1155.93C861.867 1164.88 863.067 1173.81 862.773 1182.77C855.653 1183.49 848.333 1183.28 841.44 1185.41C835.173 1187.92 837.133 1198.05 842.92 1199.83C848.04 1200.64 853.267 1200.04 858.427 1199.79C870.907 1198.79 883.44 1198.79 895.92 1197.69C896.973 1208.64 894.533 1220.19 898.707 1230.68C901.093 1237.36 912.413 1237.17 914.213 1230.13C917.253 1219.56 915.92 1208.43 916.253 1197.59C928.067 1196.6 939.96 1196.95 951.76 1196.04C956.947 1195.09 964.56 1193.13 964.693 1186.65C965.307 1182.71 961.693 1180.23 958.64 1178.72C953.627 1176.24 947.987 1178.43 942.733 1178.6C933.853 1179.11 924.973 1179.72 916.093 1179.88C915.013 1173.04 914.96 1166.11 915.067 1159.21C922.413 1159.05 929.853 1159.67 937.133 1158.41C940.373 1157.91 943.747 1155.41 943.84 1151.91C944.293 1147.57 940.253 1143.87 936.067 1143.96C928.813 1143.61 921.52 1144.27 914.307 1143.28C914.013 1138.63 913.827 1133.97 913.773 1129.32C923.067 1128.32 932.48 1129.53 941.733 1128.17C946.84 1127.48 952.253 1121.64 949.2 1116.51C946.853 1111.51 940.72 1111.56 936.04 1111.84C917.253 1112.89 898.493 1114.23 879.72 1115.2C879.413 1110.88 880.707 1105.89 877.787 1102.24C875.2 1098.67 870.32 1096.16 865.987 1097.84ZM485.24 1101.15C482.28 1105.03 480.187 1109.48 477.547 1113.57C470.227 1125.24 461.733 1136.12 454.36 1147.75C453.427 1149.37 452.347 1151.08 452.307 1153.04C453.333 1155.45 455.587 1156.97 457.44 1158.72C460.213 1157.45 463.093 1156.48 465.88 1155.25C468.227 1158.33 470.12 1163.2 474.6 1163.29C480.893 1163.45 487.147 1162.67 493.413 1162.27C499.933 1161.64 506.6 1161.67 512.907 1159.73C516.547 1158.97 517.333 1153.97 515.933 1151.09C513.693 1146.83 508.307 1146.44 504.067 1146.65C491.987 1147.4 479.56 1147.39 468.107 1151.77C475.773 1144.2 482.8 1135.99 488.747 1126.97C500.893 1134.85 511.16 1145.96 525.04 1150.93C528.96 1152.43 534.427 1153.04 536.867 1148.79C538.427 1145.85 541.173 1141.04 537.547 1138.57C533.467 1135.25 528.533 1133.31 523.933 1130.85C515.547 1126.72 507.907 1121.24 500.68 1115.35C496.173 1111.84 501.253 1104.41 496.227 1101.09C493.053 1099.35 487.787 1097.53 485.24 1101.15ZM584.64 1099.21C581.92 1102.05 580.347 1105.73 578.267 1109.03C571.213 1119.96 562.907 1130 554.467 1139.87C551.747 1142.36 551.56 1147.17 555.133 1149.01C560.733 1151.49 565.733 1146.96 570.56 1144.77C571.093 1153.81 570.413 1162.89 570.933 1171.95C570.68 1178.61 578.187 1183.92 584.307 1181.71C588.693 1179.32 588.507 1173.68 588.413 1169.39C587.893 1157.16 588.507 1144.89 587.147 1132.72C586.347 1128.63 589.6 1125.47 591.333 1122.12C594.013 1117.4 597.067 1112.41 597.213 1106.87C595.6 1101.88 589.72 1098.65 584.64 1099.21ZM736.253 1102.85C725.973 1107.51 715.6 1111.96 704.92 1115.6C701.547 1116.63 698.547 1118.52 696.24 1121.19C698.413 1124.57 700.293 1128.84 704.373 1130.33C709.04 1130.31 713.64 1129.16 718.32 1129.01C718.52 1133.12 718.667 1137.23 718.707 1141.36C713.387 1141.97 707.613 1141.59 702.773 1144.15C699.333 1146.19 701.573 1150.44 702.693 1153.23C705.707 1159.01 713.36 1156.73 718.64 1157.64C718.36 1161.91 717.773 1166.13 716.973 1170.35C709.6 1171.87 701.413 1170.03 694.613 1173.69C692.627 1178.2 695.627 1183.69 700.293 1184.85C704.987 1185.76 709.813 1185.52 714.56 1185.93C712.947 1193.52 710.12 1200.83 706.213 1207.55C704.12 1211.29 701.573 1214.87 700.387 1219.04C698.707 1224.63 705.96 1230.57 710.96 1226.97C718.293 1222.19 722.427 1214.05 726.427 1206.53C730.12 1199.71 732.187 1192.15 732.907 1184.44C738.373 1183.41 744.107 1183.33 749.333 1181.29C754.893 1178.91 754.947 1169.01 748.733 1167.47C744.133 1166.77 739.453 1167.32 734.827 1167.07C734.747 1163.6 733.707 1159.93 735.08 1156.63C738.88 1154.2 743.453 1153.45 747.44 1151.44C751.707 1149.4 751.76 1142.59 748.28 1139.81C744.267 1138.89 740.107 1139.2 736.04 1139.01C734.733 1134.12 733.68 1129.16 733.253 1124.12C738.2 1121.36 743.947 1120.04 748.427 1116.49C753.24 1112.56 751.24 1104.36 746.013 1101.79C742.867 1099.92 739.267 1101.6 736.253 1102.85ZM432.573 1103.08C428.693 1106.49 426.427 1111.31 423.787 1115.67C418.613 1125.55 411.773 1134.53 407.6 1144.93C405.667 1148.96 407.067 1153.75 409.373 1157.32C413.64 1159.96 418.987 1159.49 423.787 1160.28C420.067 1166.87 414.84 1172.4 410.68 1178.67C407.227 1182.97 409.667 1190.31 414.96 1191.76C421.813 1193.64 428.8 1191.01 435.213 1188.69C441.093 1186.37 447.2 1184.17 452.24 1180.27C455.453 1177.45 454.547 1172.72 453.2 1169.21C446.84 1169.4 440.733 1171.25 434.533 1172.43C441.12 1161.04 450.893 1151.32 454.96 1138.6C457.213 1133.45 449.987 1126.09 445.573 1130.87C439.973 1135.08 437.467 1144.52 429.173 1143.99C429.573 1141.49 430.04 1138.96 431.493 1136.85C436.427 1128.96 442.907 1121.45 444.467 1112C445.253 1105.87 437.64 1102.8 432.573 1103.08ZM762.547 1108.99C759.547 1109.57 755.507 1109.56 754.28 1113C751.667 1117.16 755.093 1122.19 759.453 1123.09C765.187 1124.2 771.093 1123.55 776.84 1124.59C776.84 1126.79 776.84 1129.01 776.827 1131.25C771.867 1132.19 766.8 1132.56 761.933 1133.89C760.053 1134.45 757.6 1135.28 757.893 1137.73C757.587 1141.05 757.72 1146.29 761.92 1146.96C766.707 1147.95 771.64 1147.52 776.493 1147.77C776.48 1150.59 776.453 1153.41 776.373 1156.25C770.307 1157.39 763.053 1156.48 758.12 1160.83C757.48 1164.56 758.4 1169.37 762.12 1171.2C766.613 1172.85 771.533 1172.55 776.253 1172.96C776.747 1175.72 777.12 1178.49 777.36 1181.29C768.16 1183.01 758.373 1182 749.6 1185.53C743.987 1188.36 747.413 1196.71 752.667 1197.69C760.347 1198.75 768.107 1197.21 775.827 1197.43C776.347 1206.29 775.84 1215.19 776.36 1224.05C776.547 1228.59 779.627 1233.36 784.093 1234.63C789.36 1235.45 792.307 1229.81 793.533 1225.57C795.68 1216.2 794.067 1206.52 794.32 1197.01C800.613 1196.67 806.933 1196.89 813.24 1196.6C817.44 1196.41 821.613 1194.21 823.933 1190.68C826.227 1186.11 822.48 1179.77 817.32 1179.63C809.307 1178.87 801.24 1180.47 793.213 1179.65C792.787 1176.69 792.747 1173.72 793.16 1170.8C798.68 1169.79 804.413 1170.07 809.853 1168.61C813.973 1166.89 812.733 1161.55 810.533 1158.77C806.88 1153.36 799.52 1154.77 793.933 1153.81C793.12 1151.63 792.493 1149.37 792.013 1147.09C797.987 1145.64 805.467 1146.83 809.92 1141.75C812.88 1138.83 811.093 1133.85 807.72 1132.16C802.493 1129.75 796.533 1130.79 790.96 1130.36C790.893 1127.52 790.88 1124.69 790.893 1121.88C797.48 1121.12 804.307 1121.92 810.747 1120.13C818.08 1117.51 815.773 1105 808.013 1104.99C792.787 1104.68 777.6 1106.84 762.547 1108.99ZM627.227 1128.71C626.173 1132.36 625.333 1136.11 625.507 1139.96C625.747 1149.15 625.827 1158.35 625.013 1167.53C622.36 1167.81 619.693 1168.04 617.053 1168.39C614.973 1176.11 622.813 1181.57 629.453 1182.83C636.267 1183.19 643.293 1177.68 643.507 1170.6C644.347 1160.39 642.853 1150.16 642.12 1139.99C641.547 1136.29 641.827 1132.03 639.267 1129.01C635.307 1128.11 631.227 1128.53 627.227 1128.71ZM608.693 1143.21C603.213 1147.76 600.413 1154.77 596.72 1160.75C592.52 1165.87 600.64 1174.99 605.573 1169.69C611.827 1164.8 618.973 1158.08 617.587 1149.32C617.467 1145.11 612.867 1140.59 608.693 1143.21ZM648 1147.03C648.773 1155.29 653.213 1163.19 659.773 1168.24C664.88 1172.56 674.427 1168.09 673.96 1161.37C672.08 1153.35 664.64 1147.69 657.027 1145.53C653.907 1144.56 650.813 1145.77 648 1147.03ZM492.6 1170.15C486.227 1171.45 479.72 1171.45 473.267 1171.03C466.773 1170.25 460.547 1176.09 460.827 1182.6C460.84 1191.03 461.493 1199.45 462.053 1207.88C462.813 1214.15 463.84 1221.36 469.12 1225.56C472.92 1228.68 477.413 1224.72 481.493 1224.29C488.067 1223.53 494.72 1223.35 501.347 1223.2C506.627 1223.01 512.387 1225.24 517.307 1222.47C522.28 1219.37 524.547 1213.47 525.133 1207.87C525.987 1200.36 527.387 1192.85 527.027 1185.28C526.893 1177.36 520.36 1169.27 512.067 1169.31C505.573 1169.23 499.04 1169.25 492.6 1170.15ZM609.813 1184.67C609.107 1192.44 614.187 1199.47 619.907 1204.17C625.573 1208.93 632.96 1201.05 631.467 1195.07C629.827 1189.35 624.587 1185.49 619.48 1182.99C616.16 1181.15 612.813 1183.33 609.813 1184.67ZM652.6 1183.24C648.613 1186.23 651.693 1191.15 653.453 1194.49C657.373 1201.05 661.853 1208.43 669.413 1211.15C675.16 1210.99 679.813 1204.56 678.52 1198.96C677.293 1193 672.027 1189.13 667.28 1185.93C663.053 1183.05 657.573 1181.43 652.6 1183.24ZM569.987 1185.69C562.2 1191.6 558.147 1201.39 556.187 1210.72C553.987 1217.81 566.16 1225.57 570.427 1218.33C575.52 1210.61 578.027 1201.25 578.52 1192.08C578.787 1187.97 574.04 1183.05 569.987 1185.69ZM584.6 1191.12C583.293 1198.72 583.467 1206.8 585.92 1214.17C590.307 1224.85 602.24 1230.49 613.293 1230.88C625.907 1231.37 639.373 1231.73 650.773 1225.45C656.293 1222.73 658.76 1215.51 656.867 1209.83C654.413 1204.57 648.947 1201.75 644.067 1199.16C642.107 1203.36 640.12 1207.56 638.093 1211.75C630.093 1213.68 621.76 1213.56 613.627 1212.68C610.333 1212.25 606.627 1211.65 604.573 1208.73C600.307 1203.11 600.68 1195.67 598.48 1189.25C595.733 1183.47 585.627 1184.67 584.6 1191.12ZM445.853 1193.61C439.08 1196.29 432.333 1199.08 425.293 1201.04C419.6 1203.03 413.213 1204.84 409.32 1209.75C408.4 1214.87 412.173 1220.77 417.573 1221.27C422.347 1221.75 426.707 1219.32 431.04 1217.69C439.147 1214.28 448.067 1211.55 454.28 1204.99C457.573 1202.07 456.907 1196.64 453.973 1193.76C451.587 1191.99 448.427 1192.75 445.853 1193.61Z"></path>
<path fill="#FBD889" d="M879.387 1160.79C885.013 1160.03 890.707 1159.92 896.373 1160.19C896.8 1167.03 896.64 1173.91 895.947 1180.73C890.627 1181.24 885.307 1181.6 879.973 1181.53C879.813 1174.61 879.187 1167.71 879.387 1160.79Z"></path>
<path fill="#FBD889" d="M478.707 1185.35C488.413 1184.71 498.133 1183.68 507.88 1184.03C508.04 1191.87 507.507 1199.73 506.267 1207.49C498.013 1208.51 489.707 1209.25 481.387 1209.27C479.293 1201.47 478.76 1193.37 478.707 1185.35Z"></path>
</g>
<defs>
<clipPath id="clip0_2_2009">
<rect fill="white" height="1365.33" width="1365.33"></rect>
</clipPath>
</defs>
</svg>
